<?xml version="1.0" encoding="utf-8"?>
<svg version="1.1" id="Layer_1" xmlns="http://www.w3.org/2000/svg" xmlns:xlink="http://www.w3.org/1999/xlink" x="0px" y="0px"
	 viewBox="0 0 377 89" style="enable-background:new 0 0 377 89;" xml:space="preserve">
<style type="text/css">
	.st0{fill:#199BD7;}
	.st1{fill:#106DA9;}
	.st2{fill:#073D5F;}
	.st3{fill:#2A4A6C;}
	.st4{fill:#256EA5;}
	.st5{fill:#3378BC;}
	.st6{fill:#169BD6;}
	.st7{fill:#00A8DA;}
</style>
<path class="st0" d="M126.1,63.9V48.2h-19.3V64h-7V25.4h7v15.8h19.3V25.4h7v38.5H126.1z"/>
<path class="st1" d="M169.7,56h-19.8l-3.6,7.9h-7.7l17.3-38.5h7.9l17.3,38.5h-7.8L169.7,56z M159.7,32.7L152.6,49h14.3L159.7,32.7
	L159.7,32.7z"/>
<path class="st2" d="M204.9,52.5h-11.4v11.4h-7V25.4l18.3-0.1C223.5,25.3,223.6,52.5,204.9,52.5 M193.5,45.6h11.2c9.5,0,9.5-14,0-14
	h-11.2V45.6z M257.8,63.9h-7.2l-11.5-13.1H232v13.1h-7V25.4l17.6,0.1c8.7,0.1,13.4,6.1,13.4,12.7c0,5.3-2.3,10.6-9.4,12.1l11.2,13.1
	L257.8,63.9L257.8,63.9z M232,31.5v12.3h11c4.6,0,6.6-3,6.6-6.1s-2-6.1-6.6-6.1C243,31.5,232,31.5,232,31.5z M300.3,44.5
	c-0.1,9.9-6.2,19.9-19.7,19.9s-19.8-9.7-19.8-19.8s6.5-20.2,19.8-20.2S300.4,34.4,300.3,44.5z M268,44.6c0.2,6.3,3.6,13,12.6,13
	s12.5-6.8,12.6-13.1s-3.5-13.7-12.6-13.7S267.8,38.2,268,44.6z"/>
<path class="st2" d="M327.4,25.4h7.9l0,0l-13,18.7l13.9,19.2V64h-8.6l-9.8-15L308,63.9h-8.5v-0.7L313.2,44l-12.9-18.7l0,0h7.9
	l9.6,13.9L327.4,25.4z M357.4,41.3l10.3-15.9h8.8v0.3L361.6,48v15.9h-7.9V48l-14.9-22.3v-0.3h8.7L357.4,41.3z"/>
<path class="st3" d="M35.2,22.4l0.3-0.2l9.2,10.5l-0.3,0.2C44.4,32.9,35.2,22.4,35.2,22.4z"/>
<path class="st3" d="M15.4,24.7l7.3,10.5l-0.1,0.1L15.4,24.7L15.4,24.7z M44.4,32.7l9.2-10.5l0.3,0.2l-9.2,10.5L44.4,32.7z
	 M55.5,44.3l10.9-9.2l0.2,0.3l-10.9,9.2L55.5,44.3L55.5,44.3z"/>
<path class="st3" d="M55.7,44.3l10.9,9.6l-0.2,0.3l-10.9-9.6L55.7,44.3z M44.4,55.9l0.3-0.2l9.2,10.2l-0.3,0.2L44.4,55.9L44.4,55.9z
	"/>
<path class="st3" d="M35.2,65.9l9.2-10.2l0.3,0.2l-9.2,10.2L35.2,65.9L35.2,65.9z M22.5,53.4L33,44.3l0.2,0.3l-10.5,9.2L22.5,53.4
	L22.5,53.4z"/>
<path class="st3" d="M22.5,35.4l0.2-0.3l10.5,9.2L33,44.6L22.5,35.4z"/>
<path class="st3" d="M44.5,33l-21.9,2.5v-0.4l21.9-2.5V33z"/>
<path class="st3" d="M44.5,32.6l22,2.5v0.4l-22-2.5V32.6z"/>
<path class="st3" d="M55.4,44.5l-1.9-22.2h0.4l1.9,22.2C55.8,44.4,55.4,44.5,55.4,44.5z"/>
<path class="st3" d="M55.8,44.5L53.9,66h-0.4l1.8-21.6L55.8,44.5z"/>
<path class="st3" d="M66.5,54.2l-22,1.8v-0.4l22-1.8V54.2z"/>
<path class="st3" d="M22.6,53.8v-0.4l21.9,2.2V56L22.6,53.8L22.6,53.8z"/>
<path class="st3" d="M35.1,66L33,44.4h0.4L35.5,66H35.1z"/>
<path class="st3" d="M35.5,22.3l-2.2,22.1h-0.4l2.2-22.1C35.1,22.3,35.5,22.3,35.5,22.3z M12.6,38l10.1-2.8v0.2l-10.1,2.8
	C12.6,38.2,12.5,38,12.6,38z"/>
<path class="st3" d="M24.7,14.9l0.1-0.1l10.5,7.5l-0.1,0.1C35.2,22.4,24.7,14.9,24.7,14.9z"/>
<path class="st3" d="M35.2,22.3l2.4-12.2h0.2l-2.4,12.2H35.2z"/>
<path class="st3" d="M37.6,10.2l0.1-0.1l16,12.2l-0.1,0.1L37.6,10.2z"/>
<path class="st3" d="M51.4,10.1l2.4,12.2h-0.2l-2.4-12.2C51.2,10.1,51.4,10.1,51.4,10.1z"/>
<path class="st3" d="M64.3,14.9l-10.5,7.4l-0.1-0.1l10.5-7.4L64.3,14.9z"/>
<path class="st3" d="M73.7,24.9l-20-2.5v-0.2l19.9,2.5L73.7,24.9z"/>
<path class="st3" d="M66.4,35.2l7.2-10.5l0.2,0.1l-7.2,10.5L66.4,35.2z"/>
<path class="st3" d="M66.5,35.2L76.8,38l-0.1,0.2l-10.2-2.8L66.5,35.2z"/>
<path class="st3" d="M66.6,35.2l10,15.3l-0.2,0.1l-10-15.3L66.6,35.2z M51.4,10.2l-16,12.2l-0.1-0.1l16-12.2
	C51.3,10,51.4,10.2,51.4,10.2z"/>
<path class="st3" d="M66.4,35.3l-2.2-20.4h0.2l2.2,20.4H66.4z M66.4,53.9l10-3.5l0.1,0.2l-10,3.5L66.4,53.9z"/>
<path class="st3" d="M66.4,54l10.2-16l0.2,0.1l-10.2,16L66.4,54z"/>
<path class="st3" d="M66.6,54l7.2,9.7l-0.1,0.1L66.6,54L66.6,54z"/>
<path class="st3" d="M64.2,73.7L66.4,54h0.2l-2.2,19.7H64.2L64.2,73.7z"/>
<path class="st3" d="M53.8,65.9l10.5,7.7l-0.1,0.2l-10.5-7.7C53.7,66.1,53.8,65.9,53.8,65.9z"/>
<path class="st3" d="M53.8,65.9l19.9-2.3v0.2l-19.9,2.3L53.8,65.9z"/>
<path class="st3" d="M53.8,66l-2.4,12.4h-0.2L53.8,66L53.8,66z"/>
<path class="st3" d="M53.8,66.1l-16,12.4l-0.1-0.1L53.8,66.1L53.8,66.1z"/>
<path class="st3" d="M35.4,66l2.4,12.4h-0.2L35.2,66H35.4z"/>
<path class="st3" d="M35.3,66.1L35.3,66.1l16.1,12.3l-0.1,0.1L35.3,66.1z"/>
<path class="st3" d="M35.4,66.1l-10.5,7.7l-0.1-0.2l10.5-7.7L35.4,66.1z"/>
<path class="st3" d="M35.3,66.1l-19.9-2.2v-0.2l19.9,2.2V66.1z"/>
<path class="st3" d="M22.7,53.6l-7.3,10.2l-0.1-0.1l7.3-10.2L22.7,53.6z"/>
<path class="st3" d="M22.5,53.6h0.2l2.2,20.1h-0.2L22.5,53.6z"/>
<path class="st3" d="M22.6,53.7l-10.1-3.2l0.1-0.2l10.1,3.2L22.6,53.7z"/>
<path class="st3" d="M22.7,35.3L12.6,50.5l-0.2-0.1l10.1-15.2C22.6,35.2,22.7,35.3,22.7,35.3z"/>
<path class="st3" d="M22.6,53.6L12.5,38.2l0.1-0.1l10.1,15.5L22.6,53.6z M24.8,14.9l-2.1,20.4h-0.2l2.1-20.4
	C24.7,14.8,24.8,14.9,24.8,14.9z"/>
<path class="st3" d="M15.4,24.7l19.9-2.4v0.2l-19.9,2.4V24.7L15.4,24.7z M17,11.2l0.1-0.1l7.7,3.7l-0.1,0.1L17,11.2L17,11.2z"/>
<path class="st3" d="M24.1,6.4h0.1l0.6,8.5h-0.1L24.1,6.4L24.1,6.4z"/>
<path class="st3" d="M37.7,10.2L24.2,6.4V6.3L37.7,10V10.2z"/>
<path class="st3" d="M31.9,3L32,2.9l5.7,7.2l-0.1,0.1L31.9,3z"/>
<path class="st3" d="M37.6,10.1L40,1.6h0.1L37.6,10.1C37.8,10.1,37.6,10.1,37.6,10.1z M24.7,14.8l7.2-11.9H32L24.7,14.8
	C24.8,14.9,24.7,14.8,24.7,14.8z"/>
<path class="st3" d="M40.1,1.6l0.1-0.1L51.4,10l-0.1,0.1L40.1,1.6z"/>
<path class="st3" d="M51.2,10.1l-2.5-8.8h0.1L51.2,10.1L51.2,10.1z"/>
<path class="st3" d="M37.7,10l11.1-8.8l0.1,0.1l-11.1,8.8L37.7,10L37.7,10z M51.3,10.1l5.8-7.2L57.2,3l-5.8,7.2
	C51.4,10.1,51.3,10.1,51.3,10.1z"/>
<path class="st3" d="M57.1,2.9L57.1,2.9l7.2,11.8l-0.1,0.1C64.2,14.9,57.1,2.9,57.1,2.9z"/>
<path class="st3" d="M64.2,14.8L65,6.3h0.1L64.2,14.8L64.2,14.8z"/>
<path class="st3" d="M51.3,10L65,6.3v0.1l-13.7,3.7C51.3,10.2,51.3,10,51.3,10z M64.2,14.8l7.9-4.1l0.1,0.1l-7.9,4.1L64.2,14.8z"/>
<path class="st3" d="M64.3,14.8l13.8,2.1V17L64.3,14.8L64.3,14.8z"/>
<path class="st3" d="M73.6,24.7l4.4-7.8l0.1,0.1l-4.4,7.8L73.6,24.7z"/>
<path class="st3" d="M73.6,24.8l-1.5-14h0.1L73.6,24.8L73.6,24.8z"/>
<path class="st3" d="M73.7,24.7l9.1-0.8V24L73.7,24.7L73.7,24.7z"/>
<path class="st3" d="M73.7,24.7l12.4,7L86,31.8L73.7,24.7C73.6,24.8,73.7,24.7,73.7,24.7z"/>
<path class="st3" d="M76.7,38.1l6-14.1h0.1L76.7,38.1L76.7,38.1z"/>
<path class="st3" d="M76.7,38l9.4-6.3l0.1,0.1l-9.4,6.3C76.8,38.2,76.7,38,76.7,38z"/>
<path class="st3" d="M76.7,38l10.5,2.1v0.1L76.7,38L76.7,38z"/>
<path class="st3" d="M76.4,50.5l10.7-10.4l0.1,0.1L76.4,50.5C76.5,50.6,76.4,50.5,76.4,50.5z"/>
<path class="st3" d="M76.5,50.5l11-2v0.1L76.5,50.5L76.5,50.5L76.5,50.5z"/>
<path class="st3" d="M76.7,38.1L76.7,38.1l10.8,10.3l-0.1,0.1L76.7,38.1L76.7,38.1z M76.4,50.6L76.4,50.6l9.5,6.2l-0.1,0.1
	L76.4,50.6L76.4,50.6z"/>
<path class="st3" d="M73.6,63.7l12.2-6.9l0.1,0.1L73.6,63.7L73.6,63.7z"/>
<path class="st3" d="M73.7,63.8L73.7,63.8l9,0.8v0.1L73.7,63.8z"/>
<path class="st3" d="M76.5,50.5l6.2,14.1l-0.1,0.1L76.5,50.5L76.5,50.5z M73.6,63.8L73.6,63.8l4.4,7.8l-0.1,0.1L73.6,63.8L73.6,63.8
	z"/>
<path class="st3" d="M72,77.6l1.6-13.9h0.1L72,77.6L72,77.6L72,77.6z"/>
<path class="st3" d="M64.3,73.7L64.3,73.7l7.9,3.9L72,77.7L64.3,73.7z"/>
<path class="st3" d="M64.4,73.7l0.6,8.7h-0.1L64.4,73.7L64.4,73.7z"/>
<path class="st3" d="M64.3,73.6l13.7-2v0.1L64.3,73.6L64.3,73.6z"/>
<path class="st3" d="M57.1,85.7l7.2-12.1l0.1,0.1L57.1,85.7L57.1,85.7L57.1,85.7z"/>
<path class="st3" d="M51.4,78.4l5.8,7.4l-0.1,0.1L51.4,78.4C51.3,78.5,51.4,78.4,51.4,78.4z"/>
<path class="st3" d="M51.4,78.3l13.5,4v0.1L51.4,78.3L51.4,78.3z"/>
<path class="st3" d="M51.4,78.4l-2.5,9h-0.1L51.4,78.4C51.3,78.4,51.4,78.4,51.4,78.4z"/>
<path class="st3" d="M51.4,78.5l-11.2,9l-0.1-0.1L51.4,78.5C51.3,78.4,51.4,78.5,51.4,78.5z"/>
<path class="st3" d="M37.8,78.4l2.4,9h-0.1L37.8,78.4L37.8,78.4z"/>
<path class="st3" d="M37.7,78.5L37.7,78.5l11.2,8.9l-0.1,0.1L37.7,78.5L37.7,78.5z"/>
<path class="st3" d="M31.9,85.7l5.8-7.4l0.1,0.1L32,85.8L31.9,85.7L31.9,85.7z"/>
<path class="st3" d="M24.9,73.6L32,85.8l-0.1,0.1l-7.2-12.1L24.9,73.6z"/>
<path class="st3" d="M37.8,78.5l-13.6,4.2v-0.1L37.8,78.5L37.8,78.5z"/>
<path class="st3" d="M24.9,73.7l-0.7,8.9h-0.1l0.7-8.9H24.9z"/>
<path class="st3" d="M24.8,73.7L17,78l-0.1-0.1L24.8,73.7L24.8,73.7z"/>
<path class="st3" d="M15.4,63.8L17,77.9h-0.1l-1.6-14.1C15.3,63.8,15.5,63.8,15.4,63.8z"/>
<path class="st3" d="M24.8,73.7L11,71.9v-0.1L24.8,73.7L24.8,73.7z"/>
<path class="st3" d="M11,71.8l4.4-8l0.1,0.1l-4.3,8C11.1,71.8,11,71.8,11,71.8z"/>
<path class="st3" d="M15.4,63.9l-9,0.9v-0.1L15.4,63.9L15.4,63.9z"/>
<path class="st3" d="M15.3,63.9L3,57v-0.2l12.4,6.9L15.3,63.9z"/>
<path class="st3" d="M2.9,56.8l9.6-6.5l0.1,0.1L3,57L2.9,56.8z"/>
<path class="st3" d="M12.5,50.5L1.7,48.6v-0.1L12.5,50.5L12.5,50.5z"/>
<path class="st3" d="M12.6,50.5L6.5,64.7l-0.1-0.1l6.1-14.3C12.5,50.4,12.6,50.5,12.6,50.5z M12.6,38.1L1.7,48.6l-0.1-0.1L12.6,38.1
	C12.5,38.1,12.6,38.1,12.6,38.1z"/>
<path class="st3" d="M12.5,50.5L1.6,40.3l0.1-0.1L12.5,50.5L12.5,50.5z M12.5,38.2L3.2,32l0.1-0.1l9.3,6.2L12.5,38.2z"/>
<path class="st3" d="M1.6,40.2l11-2.2v0.1L1.7,40.3L1.6,40.2L1.6,40.2z"/>
<path class="st3" d="M12.5,38.1l-6.1-14L6.5,24l6.1,14C12.6,38.1,12.5,38.1,12.5,38.1z"/>
<path class="st3" d="M6.4,24.1V24l8.9,0.7v0.1L6.4,24.1z"/>
<path class="st3" d="M3.2,31.9l12.1-7.2l0.1,0.1L3.3,32L3.2,31.9L3.2,31.9z"/>
<path class="st3" d="M11.1,17.3l0.1-0.1l4.2,7.5l-0.1,0.1L11.1,17.3z"/>
<path class="st3" d="M15.3,24.8L17,11.1h0.1l-1.6,13.6L15.3,24.8z"/>
<path class="st3" d="M11.1,17.2l13.6-2.4v0.1l-13.6,2.4C11.2,17.4,11.1,17.2,11.1,17.2z"/>
<path class="st4" d="M39.4,37.6l0.1-10.4l10.4,0.1l-0.1,10.4L39.4,37.6z M28,49.8l0.1-10.4l10.4,0.1l-0.1,10.4L28,49.8z M39.4,61.2
	l0.1-10.4l10.4,0.1l-0.1,10.4L39.4,61.2z M50.8,49.8l0.1-10.4l10.4,0.1l-0.1,10.4L50.8,49.8z"/>
<path class="st5" d="M19.3,38.5v-7h7v7H19.3L19.3,38.5z M31.5,25.4v-7h7v7H31.5z M49.9,25.4v-7h7v7H49.9L49.9,25.4z M63,38.5
	l0.1-6.9l6.9,0.1v6.8H63z M63,56.9v-7h7l-0.1,7C70,56.9,63,56.9,63,56.9z M49.9,70v-7h7v7H49.9z M31.5,70v-7h7v7H31.5L31.5,70z
	 M19.3,56.9l0.1-6.9l6.9,0.1L26.2,57L19.3,56.9z"/>
<path class="st6" d="M13.1,27.1v-5.2h5.2v5.2C18.3,27.2,13.1,27.1,13.1,27.1z M21.9,17.5v-5.2h5.2v5.2H21.9z M35,13.1V7.9h5.2v5.2
	H35z M49,7.9h4.4v4.4H49V7.9z M62.1,12.3h4.4v4.4h-4.4V12.3z M71.8,22.8h4.4v4.4h-4.4V22.8z M74.4,35.9h4.4v4.4h-4.4
	C74.4,40.3,74.4,35.9,74.4,35.9z M73.5,53.4v-5.2h5.2v5.2H73.5z M70.9,66.5v-5.2h5.2v5.2H70.9z M61.3,76.1v-5.2h5.2v5.2
	C66.5,76.2,61.3,76.1,61.3,76.1z M49,81.4v-5.2h5.2v5.2H49z M35.9,76.2h4.4v4.4h-4.4V76.2z M22.7,71.8h4.4v4.4h-4.4
	C22.8,76.2,22.7,71.8,22.7,71.8z M13.1,61.3h4.4v4.4h-4.4V61.3z M10.5,48.1h4.4v4.4h-4.4V48.1z M10.5,41.1v-5.2h4.3v5.2H10.5z"/>
<path class="st7" d="M15.8,12.3V9.7h2.6v2.6C18.4,12.3,15.8,12.3,15.8,12.3z M9.6,18.4v-2.6h2.6v2.6H9.6z M5.2,25.4v-2.6h2.6v2.6
	H5.2z M1.8,33.3v-2.6h2.6v2.6C4.4,33.3,1.8,33.3,1.8,33.3z M0,41.2v-2.6h2.6v2.6H0z M0,49.9v-2.6h2.6v2.6H0z M1.8,57.8v-2.6h2.6v2.6
	C4.4,57.8,1.8,57.8,1.8,57.8z M5.2,65.7v-2.6h2.6v2.6H5.2z M9.6,72.7v-2.6h2.6v2.6H9.6z M15.8,78.8v-2.6h2.6v2.6H15.8z M22.8,84.1
	v-2.6h2.6v2.6H22.8z M30.6,86.7v-2.6h2.6v2.6H30.6z M39.4,88.4v-2.6H42v2.6H39.4z M47.3,85.8h2.6v2.6h-2.6V85.8z M56,86.7v-2.6h2.6
	v2.6H56z M63.9,81.4h2.6V84h-2.7L63.9,81.4L63.9,81.4z M70.9,78.8v-2.6h2.6v2.6H70.9z M77,72.7v-2.6h2.6v2.6H77z M81.4,65.7v-2.6H84
	v2.6H81.4z M84.9,57.8v-2.6h2.6v2.6H84.9z M85.8,49.9v-2.6h2.6v2.6H85.8z M85.8,41.2v-2.6h2.6v2.6H85.8z M84.9,33.3v-2.6h2.6v2.6
	H84.9z M81.4,25.4v-2.6H84v2.6H81.4z M77,18.4v-2.6h2.6v2.6H77z M70.9,12.3V9.7h2.6v2.6L70.9,12.3z M63.9,7.9V5.3h2.6v2.6H63.9z
	 M56,4.4V1.8h2.6v2.6C58.6,4.4,56,4.4,56,4.4z M47.3,2.6V0h2.6v2.6C49.9,2.7,47.3,2.6,47.3,2.6z M39.4,0H42v2.7h-2.7L39.4,0L39.4,0z
	 M30.6,4.4V1.8h2.6v2.6C33.2,4.4,30.6,4.4,30.6,4.4z M22.7,5.3h2.6V8h-2.6V5.3L22.7,5.3z"/>
<g>
	<g>
		<path class="st1" d="M139.3,76.7c0-4.4,3.3-7.6,7.8-7.6c2.1,0,4,0.7,5.4,2.1l-0.7,0.7c-1.3-1.3-2.9-1.8-4.6-1.8
			c-3.8,0-6.8,2.8-6.8,6.6c0,3.8,2.9,6.6,6.8,6.6c1.8,0,3.3-0.5,4.6-1.8l0.7,0.7c-1.3,1.4-3.2,2.1-5.4,2.1
			C142.7,84.3,139.3,81.1,139.3,76.7z"/>
		<path class="st1" d="M154.7,76.7c0-4.4,3.3-7.6,7.8-7.6s7.8,3.2,7.8,7.6s-3.4,7.6-7.8,7.6C158.1,84.3,154.7,81.1,154.7,76.7z
			 M169.3,76.7c0-3.8-2.9-6.6-6.7-6.6s-6.7,2.8-6.7,6.6c0,3.8,2.9,6.6,6.7,6.6C166.4,83.3,169.3,80.5,169.3,76.7z"/>
		<path class="st1" d="M188.4,84.2V71.3l-6.3,10.9h-0.5l-6.3-10.8v12.8h-1.1v-15h0.9l6.7,11.6l6.7-11.6h0.9v15
			C189.4,84.2,188.4,84.2,188.4,84.2z"/>
		<path class="st1" d="M209,84.2V71.3l-6.3,10.9h-0.5l-6.3-10.8v12.8h-1.1v-15h0.9l6.7,11.6l6.7-11.6h0.9v15
			C210,84.2,209,84.2,209,84.2z"/>
		<path class="st1" d="M215.1,77.8v-8.7h1.1v8.6c0,3.8,1.8,5.5,4.9,5.5s4.9-1.8,4.9-5.5v-8.6h1.1v8.7c0,4.3-2.3,6.5-6,6.5
			S215.1,82.1,215.1,77.8z"/>
		<path class="st1" d="M244.6,69.2v15h-0.9l-10.3-13.1v13.1h-1.1v-15h0.9l10.2,13.1V69.2H244.6z"/>
		<path class="st1" d="M249.8,69.2h1.1v15h-1.1V69.2z"/>
		<path class="st1" d="M259,70.2h-5.4v-1h11.9v1h-5.4v14.1H259V70.2z"/>
		<path class="st1" d="M272.9,79.1v5.2h-1.1v-5.2l-6.1-9.9h1.2l5.4,8.9l5.4-8.9h1.1L272.9,79.1z"/>
		<path class="st1" d="M297.6,83.2v1h-10.4v-15h10.1v1h-9v5.9h8v1h-8v6.2L297.6,83.2L297.6,83.2z"/>
		<path class="st1" d="M301.6,69.2h6c4.8,0,8,3.1,8,7.5s-3.2,7.5-8,7.5h-6V69.2z M307.5,83.2c4.3,0,7-2.7,7-6.5s-2.7-6.5-7-6.5h-4.8
			v13.1L307.5,83.2L307.5,83.2z"/>
		<path class="st1" d="M319.3,69.2h1.1v15h-1.1V69.2z"/>
		<path class="st1" d="M328.6,70.2h-5.4v-1h11.9v1h-5.4v14.1h-1.1V70.2z"/>
		<path class="st1" d="M337.8,69.2h1.1v15h-1.1V69.2z"/>
		<path class="st1" d="M342.7,76.7c0-4.4,3.3-7.6,7.8-7.6s7.8,3.2,7.8,7.6s-3.4,7.6-7.8,7.6C346,84.3,342.7,81.1,342.7,76.7z
			 M357.2,76.7c0-3.8-2.9-6.6-6.7-6.6c-3.8,0-6.7,2.8-6.7,6.6c0,3.8,2.9,6.6,6.7,6.6C354.3,83.3,357.2,80.5,357.2,76.7z"/>
		<path class="st1" d="M374.4,69.2v15h-0.9l-10.3-13.1v13.1h-1.1v-15h0.9l10.2,13.1V69.2H374.4z"/>
	</g>
</g>
</svg>
