<?xml version="1.0" encoding="utf-8"?>
<svg version="1.1" id="Layer_1" xmlns="http://www.w3.org/2000/svg" xmlns:xlink="http://www.w3.org/1999/xlink" x="0px" y="0px"
	 viewBox="0 0 377 89" style="enable-background:new 0 0 377 89;" xml:space="preserve">
<style type="text/css">
	.st0{fill:#5899D4;}
	.st1{fill:#3D6DA5;}
	.st2{fill:#26405F;}
	.st3{fill:#2A4A6C;}
	.st4{fill:#4D76B9;}
	.st5{fill:#5EA8D9;}
</style>
<path class="st0" d="M126.1,63.9V48.2h-19.3v15.8h-7V25.4h7v15.8h19.3V25.4h7v38.5C133.1,63.9,126.1,63.9,126.1,63.9z"/>
<path class="st1" d="M169.7,56h-19.8l-3.6,7.9h-7.7l17.3-38.5h7.9l17.3,38.5h-7.8L169.7,56z M159.7,32.7L152.6,49h14.3L159.7,32.7
	L159.7,32.7z"/>
<path class="st2" d="M204.9,52.5h-11.4v11.4h-7V25.4l18.3-0.1C223.5,25.3,223.6,52.5,204.9,52.5 M193.5,45.6h11.2c9.5,0,9.5-14,0-14
	h-11.2L193.5,45.6z M257.8,63.9h-7.2l-11.5-13.1H232v13.1h-7V25.4l17.6,0.1c8.7,0.1,13.4,6.1,13.4,12.7c0,5.3-2.3,10.6-9.4,12.1
	l11.2,13.1L257.8,63.9L257.8,63.9z M232,31.5v12.3h11c4.6,0,6.6-3,6.6-6.1s-2-6.1-6.6-6.1C243,31.5,232,31.5,232,31.5z M300.3,44.5
	c-0.1,9.9-6.2,19.9-19.7,19.9s-19.8-9.7-19.8-19.8s6.5-20.2,19.8-20.2S300.4,34.4,300.3,44.5z M268,44.6c0.2,6.3,3.6,13,12.6,13
	s12.5-6.8,12.6-13.1s-3.5-13.7-12.6-13.7S267.8,38.2,268,44.6z"/>
<path class="st2" d="M327.4,25.4h7.9v0l-13,18.7l13.9,19.2v0.7h-8.6L317.8,49L308,63.9h-8.5v-0.7L313.2,44l-12.9-18.7v0h7.9
	l9.6,13.9L327.4,25.4z M357.4,41.3l10.3-15.9h8.8v0.3L361.6,48v15.9h-7.9V48l-14.9-22.3v-0.3h8.7L357.4,41.3z"/>
<path class="st3" d="M35.2,22.4l0.3-0.2l9.2,10.5l-0.3,0.2C44.4,32.9,35.2,22.4,35.2,22.4z"/>
<path class="st3" d="M15.4,24.7l7.3,10.5l-0.1,0.1l-7.3-10.5C15.3,24.8,15.4,24.7,15.4,24.7z M44.4,32.7l9.2-10.5l0.3,0.2l-9.2,10.5
	L44.4,32.7z M55.5,44.3l10.9-9.2l0.2,0.3l-10.9,9.2L55.5,44.3L55.5,44.3z"/>
<path class="st3" d="M55.7,44.3l10.9,9.6l-0.2,0.3l-10.9-9.6C55.5,44.6,55.7,44.3,55.7,44.3z M44.4,55.9l0.3-0.2l9.2,10.2l-0.3,0.2
	L44.4,55.9L44.4,55.9z"/>
<path class="st3" d="M35.2,65.9l9.2-10.2l0.3,0.2l-9.2,10.2L35.2,65.9L35.2,65.9z M22.5,53.4L33,44.3l0.2,0.3l-10.5,9.2L22.5,53.4
	L22.5,53.4z"/>
<path class="st3" d="M22.5,35.4l0.2-0.3l10.5,9.2L33,44.6C33,44.6,22.5,35.4,22.5,35.4z"/>
<path class="st3" d="M44.5,33l-21.9,2.5l0-0.4l21.9-2.5L44.5,33z"/>
<path class="st3" d="M44.5,32.6l22,2.5l0,0.4l-22-2.5L44.5,32.6z"/>
<path class="st3" d="M55.4,44.5l-1.9-22.2l0.4,0l1.9,22.2C55.8,44.4,55.4,44.5,55.4,44.5z"/>
<path class="st3" d="M55.8,44.5L53.9,66l-0.4,0l1.8-21.6L55.8,44.5z"/>
<path class="st3" d="M66.5,54.2l-22,1.8l0-0.4l22-1.8L66.5,54.2z"/>
<path class="st3" d="M22.6,53.8l0-0.4l21.9,2.2l0,0.4L22.6,53.8L22.6,53.8z"/>
<path class="st3" d="M35.1,66L33,44.4l0.4,0L35.5,66L35.1,66z"/>
<path class="st3" d="M35.5,22.3l-2.2,22.1l-0.4,0l2.2-22.1C35.1,22.3,35.5,22.3,35.5,22.3z M12.6,38l10.1-2.8l0,0.2l-10.1,2.8
	C12.6,38.2,12.5,38,12.6,38z"/>
<path class="st3" d="M24.7,14.9l0.1-0.1l10.5,7.5l-0.1,0.1C35.2,22.4,24.7,14.9,24.7,14.9z"/>
<path class="st3" d="M35.2,22.3l2.4-12.2l0.2,0l-2.4,12.2L35.2,22.3z"/>
<path class="st3" d="M37.6,10.2l0.1-0.1l16,12.2l-0.1,0.1L37.6,10.2z"/>
<path class="st3" d="M51.4,10.1l2.4,12.2l-0.2,0l-2.4-12.2C51.2,10.1,51.4,10.1,51.4,10.1z"/>
<path class="st3" d="M64.3,14.9l-10.5,7.4l-0.1-0.1l10.5-7.4L64.3,14.9z"/>
<path class="st3" d="M73.7,24.9l-20-2.5l0-0.2l19.9,2.5L73.7,24.9z"/>
<path class="st3" d="M66.4,35.2l7.2-10.5l0.2,0.1l-7.2,10.5L66.4,35.2z"/>
<path class="st3" d="M66.5,35.2L76.8,38l-0.1,0.2l-10.2-2.8L66.5,35.2z"/>
<path class="st3" d="M66.6,35.2l10,15.3l-0.2,0.1l-10-15.3L66.6,35.2z M51.4,10.2l-16,12.2l-0.1-0.1l16-12.2
	C51.3,10,51.4,10.2,51.4,10.2z"/>
<path class="st3" d="M66.4,35.3l-2.2-20.4l0.2,0l2.2,20.4L66.4,35.3z M66.4,53.9l10-3.5l0.1,0.2l-10,3.5L66.4,53.9z"/>
<path class="st3" d="M66.4,54L76.6,38l0.2,0.1L66.6,54.1L66.4,54z"/>
<path class="st3" d="M66.6,54l7.2,9.7l-0.1,0.1l-7.2-9.7L66.6,54z"/>
<path class="st3" d="M64.2,73.7L66.4,54l0.2,0l-2.2,19.7L64.2,73.7L64.2,73.7z"/>
<path class="st3" d="M53.8,65.9l10.5,7.7l-0.1,0.2l-10.5-7.7C53.7,66.1,53.8,65.9,53.8,65.9z"/>
<path class="st3" d="M53.8,65.9l19.9-2.3l0,0.2l-19.9,2.3L53.8,65.9z"/>
<path class="st3" d="M53.8,66l-2.4,12.4l-0.2,0L53.7,66L53.8,66z"/>
<path class="st3" d="M53.8,66.1l-16,12.4l-0.1-0.1l16-12.4L53.8,66.1z"/>
<path class="st3" d="M35.4,66l2.4,12.4l-0.2,0L35.2,66L35.4,66z"/>
<path class="st3" d="M35.3,66.1l0.1-0.1l16,12.4l-0.1,0.1C51.3,78.5,35.3,66.1,35.3,66.1z"/>
<path class="st3" d="M35.4,66.1l-10.5,7.7l-0.1-0.2l10.5-7.7L35.4,66.1z"/>
<path class="st3" d="M35.3,66.1l-19.9-2.2l0-0.2l19.9,2.2L35.3,66.1z"/>
<path class="st3" d="M22.7,53.6l-7.3,10.2l-0.1-0.1l7.3-10.2L22.7,53.6z"/>
<path class="st3" d="M22.5,53.6l0.2,0l2.2,20.1l-0.2,0C24.7,73.7,22.5,53.6,22.5,53.6z"/>
<path class="st3" d="M22.6,53.7l-10.1-3.2l0.1-0.2l10.1,3.2L22.6,53.7z"/>
<path class="st3" d="M22.7,35.3L12.6,50.5l-0.2-0.1l10.1-15.2C22.6,35.2,22.7,35.3,22.7,35.3z"/>
<path class="st3" d="M22.6,53.6L12.5,38.2l0.1-0.1l10.1,15.5L22.6,53.6z M24.8,14.9l-2.1,20.4l-0.2,0l2.1-20.4
	C24.7,14.8,24.8,14.9,24.8,14.9z"/>
<path class="st3" d="M15.4,24.7l19.9-2.4l0,0.2l-19.9,2.4L15.4,24.7L15.4,24.7z M17,11.2l0.1-0.1l7.7,3.7l-0.1,0.1L17,11.2L17,11.2z
	"/>
<path class="st3" d="M24.1,6.4l0.1,0l0.6,8.5l-0.1,0L24.1,6.4L24.1,6.4z"/>
<path class="st3" d="M37.7,10.2L24.2,6.4l0-0.1L37.7,10L37.7,10.2z"/>
<path class="st3" d="M31.9,3L32,2.9l5.7,7.2l-0.1,0.1L31.9,3z"/>
<path class="st3" d="M37.6,10.1l2.4-8.5l0.1,0l-2.5,8.5C37.8,10.1,37.6,10.1,37.6,10.1z M24.7,14.8l7.2-11.9L32,2.9l-7.2,11.9
	C24.8,14.9,24.7,14.8,24.7,14.8z"/>
<path class="st3" d="M40.1,1.6l0.1-0.1L51.4,10l-0.1,0.1L40.1,1.6z"/>
<path class="st3" d="M51.2,10.1l-2.5-8.8l0.1,0l2.5,8.8L51.2,10.1z"/>
<path class="st3" d="M37.7,10l11.1-8.8l0.1,0.1l-11.1,8.8L37.7,10L37.7,10z M51.3,10.1l5.8-7.2L57.2,3l-5.8,7.2
	C51.4,10.1,51.3,10.1,51.3,10.1z"/>
<path class="st3" d="M57.1,2.9l0.1-0.1l7.1,11.9l-0.1,0.1C64.2,14.9,57.1,2.9,57.1,2.9z"/>
<path class="st3" d="M64.2,14.8l0.8-8.5l0.1,0l-0.8,8.5L64.2,14.8z"/>
<path class="st3" d="M51.3,10L65,6.3l0,0.1l-13.7,3.7C51.3,10.2,51.3,10,51.3,10z M64.2,14.8l7.9-4.1l0.1,0.1l-7.9,4.1L64.2,14.8z"
	/>
<path class="st3" d="M64.3,14.8l13.8,2.1l0,0.1l-13.8-2.1L64.3,14.8z"/>
<path class="st3" d="M73.6,24.7l4.4-7.8l0.1,0.1l-4.4,7.8L73.6,24.7z"/>
<path class="st3" d="M73.6,24.8l-1.5-14l0.1,0l1.5,14L73.6,24.8z"/>
<path class="st3" d="M73.7,24.7l9.1-0.8l0,0.1l-9.1,0.8L73.7,24.7z"/>
<path class="st3" d="M73.7,24.7l12.4,7l-0.1,0.1l-12.4-7.1C73.6,24.8,73.7,24.7,73.7,24.7z"/>
<path class="st3" d="M76.7,38.1l6-14.1l0.1,0l-6,14.1L76.7,38.1z"/>
<path class="st3" d="M76.7,38l9.4-6.3l0.1,0.1l-9.4,6.3C76.8,38.2,76.7,38,76.7,38z"/>
<path class="st3" d="M76.7,38l10.5,2.1l0,0.1l-10.5-2.1L76.7,38z"/>
<path class="st3" d="M76.4,50.5l10.7-10.4l0.1,0.1L76.4,50.5C76.5,50.6,76.4,50.5,76.4,50.5z"/>
<path class="st3" d="M76.5,50.5l11-2l0,0.1l-11,2L76.5,50.5L76.5,50.5z"/>
<path class="st3" d="M76.7,38.1L76.7,38.1l10.8,10.3l-0.1,0.1L76.7,38.1L76.7,38.1z M76.4,50.6l0.1-0.1l9.4,6.3l-0.1,0.1L76.4,50.6
	L76.4,50.6z"/>
<path class="st3" d="M73.6,63.7l12.2-6.9l0.1,0.1l-12.2,6.9L73.6,63.7z"/>
<path class="st3" d="M73.7,63.8l0-0.1l9,0.9l0,0.1L73.7,63.8z"/>
<path class="st3" d="M76.5,50.5l6.2,14.1l-0.1,0.1l-6.2-14.1C76.4,50.6,76.5,50.5,76.5,50.5z M73.6,63.8l0.1-0.1l4.3,7.9l-0.1,0.1
	L73.6,63.8L73.6,63.8z"/>
<path class="st3" d="M72,77.6l1.6-13.9l0.1,0l-1.6,13.9L72,77.6L72,77.6z"/>
<path class="st3" d="M64.3,73.7l0.1-0.1l7.8,4L72,77.7L64.3,73.7z"/>
<path class="st3" d="M64.4,73.7l0.6,8.7l-0.1,0l-0.6-8.7L64.4,73.7z"/>
<path class="st3" d="M64.3,73.6l13.7-2l0,0.1l-13.7,2C64.3,73.7,64.3,73.6,64.3,73.6z"/>
<path class="st3" d="M57.1,85.7l7.2-12.1l0.1,0.1l-7.2,12.1L57.1,85.7L57.1,85.7z"/>
<path class="st3" d="M51.4,78.4l5.8,7.4l-0.1,0.1l-5.8-7.4C51.3,78.5,51.4,78.4,51.4,78.4z"/>
<path class="st3" d="M51.4,78.3l13.5,4l0,0.1l-13.5-4L51.4,78.3z"/>
<path class="st3" d="M51.4,78.4l-2.5,9l-0.1,0l2.5-9C51.3,78.4,51.4,78.4,51.4,78.4z"/>
<path class="st3" d="M51.4,78.5l-11.2,9l-0.1-0.1L51.4,78.5C51.3,78.4,51.4,78.5,51.4,78.5z"/>
<path class="st3" d="M37.8,78.4l2.4,9l-0.1,0l-2.4-9L37.8,78.4z"/>
<path class="st3" d="M37.7,78.5l0.1-0.1l11.1,9l-0.1,0.1L37.7,78.5L37.7,78.5z"/>
<path class="st3" d="M31.9,85.7l5.8-7.4l0.1,0.1L32,85.8L31.9,85.7L31.9,85.7z"/>
<path class="st3" d="M24.9,73.6L32,85.8l-0.1,0.1l-7.2-12.1L24.9,73.6z"/>
<path class="st3" d="M37.8,78.5l-13.6,4.2l0-0.1l13.6-4.2L37.8,78.5z"/>
<path class="st3" d="M24.9,73.7l-0.7,8.9l-0.1,0l0.7-8.9L24.9,73.7z"/>
<path class="st3" d="M24.8,73.7L17,78l-0.1-0.1l7.9-4.3C24.8,73.6,24.8,73.7,24.8,73.7z"/>
<path class="st3" d="M15.4,63.8L17,77.9l-0.1,0l-1.6-14.1C15.3,63.8,15.5,63.8,15.4,63.8z"/>
<path class="st3" d="M24.8,73.7L11,71.9l0-0.1l13.8,1.9L24.8,73.7z"/>
<path class="st3" d="M11,71.8l4.4-8l0.1,0.1l-4.3,8C11.1,71.8,11,71.8,11,71.8z"/>
<path class="st3" d="M15.4,63.9l-9,0.9l0-0.1l9-0.9L15.4,63.9z"/>
<path class="st3" d="M15.3,63.9L3,57L3,56.8l12.4,6.9L15.3,63.9z"/>
<path class="st3" d="M2.9,56.8l9.6-6.5l0.1,0.1L3,57C3,57,2.9,56.8,2.9,56.8z"/>
<path class="st3" d="M12.5,50.5L1.7,48.6l0-0.1l10.9,1.9L12.5,50.5z"/>
<path class="st3" d="M12.6,50.5L6.5,64.7l-0.1-0.1l6.1-14.3C12.5,50.4,12.6,50.5,12.6,50.5z M12.6,38.1L1.7,48.6l-0.1-0.1L12.6,38.1
	C12.5,38.1,12.6,38.1,12.6,38.1z"/>
<path class="st3" d="M12.5,50.5L1.6,40.3l0.1-0.1l10.9,10.2L12.5,50.5z M12.5,38.2L3.2,32l0.1-0.1l9.3,6.2L12.5,38.2z"/>
<path class="st3" d="M1.6,40.2L12.6,38l0,0.1L1.7,40.3L1.6,40.2L1.6,40.2z"/>
<path class="st3" d="M12.5,38.1l-6.1-14l0.1-0.1l6.1,14C12.6,38.1,12.5,38.1,12.5,38.1z"/>
<path class="st3" d="M6.4,24.1l0-0.1l8.9,0.7l0,0.1L6.4,24.1z"/>
<path class="st3" d="M3.2,31.9l12.1-7.2l0.1,0.1L3.3,32L3.2,31.9L3.2,31.9z"/>
<path class="st3" d="M11.1,17.3l0.1-0.1l4.2,7.5l-0.1,0.1C15.3,24.8,11.1,17.3,11.1,17.3z"/>
<path class="st3" d="M15.3,24.8L17,11.1l0.1,0l-1.6,13.6L15.3,24.8z"/>
<path class="st3" d="M11.1,17.2l13.6-2.4l0,0.1l-13.6,2.4C11.2,17.4,11.1,17.2,11.1,17.2z"/>
<path class="st1" d="M39.4,37.6l0.1-10.4l10.4,0.1l-0.1,10.4L39.4,37.6z M28,49.8l0.1-10.4l10.4,0.1l-0.1,10.4L28,49.8z M39.4,61.2
	l0.1-10.4l10.4,0.1l-0.1,10.4L39.4,61.2z M50.8,49.8l0.1-10.4l10.4,0.1l-0.1,10.4L50.8,49.8z"/>
<path class="st4" d="M19.3,38.5l0-7l7,0l0,7L19.3,38.5C19.3,38.5,19.3,38.5,19.3,38.5z M31.5,25.4l0-7l7,0l0,7L31.5,25.4z
	 M49.9,25.4l0-7l7,0l0,7L49.9,25.4L49.9,25.4z M63,38.5l0.1-6.9l6.9,0.1L70,38.5C70,38.5,63,38.5,63,38.5z M63,56.9l0-7l7,0l-0.1,7
	C70,56.9,63,56.9,63,56.9z M49.9,70l0-7l7,0l0,7L49.9,70z M31.5,70l0-7l7,0l0,7L31.5,70L31.5,70z M19.3,56.9l0.1-6.9l6.9,0.1
	l-0.1,6.9L19.3,56.9z"/>
<path class="st0" d="M13.1,27.1l0-5.2l5.2,0l0,5.2C18.3,27.2,13.1,27.1,13.1,27.1z M21.9,17.5l0-5.2l5.2,0l0,5.2L21.9,17.5z
	 M35,13.1l0-5.2l5.2,0l0,5.2L35,13.1z M49,7.9l4.4,0l0,4.4l-4.4,0C49,12.3,49,7.9,49,7.9z M62.1,12.3l4.4,0l0,4.4l-4.4,0
	C62.1,16.7,62.1,12.3,62.1,12.3z M71.8,22.8l4.4,0l0,4.4l-4.4,0L71.8,22.8z M74.4,35.9l4.4,0l0,4.4l-4.4,0
	C74.4,40.3,74.4,35.9,74.4,35.9z M73.5,53.4l0-5.2l5.2,0l0,5.2L73.5,53.4z M70.9,66.5l0-5.2l5.2,0l0,5.2L70.9,66.5z M61.3,76.1
	l0-5.2l5.2,0l0,5.2C66.5,76.2,61.3,76.1,61.3,76.1z M49,81.4l0-5.2l5.2,0l0,5.2L49,81.4z M35.9,76.2l4.4,0l0,4.4l-4.4,0L35.9,76.2z
	 M22.7,71.8l4.4,0l0,4.4l-4.4,0C22.8,76.2,22.7,71.8,22.7,71.8z M13.1,61.3l4.4,0l0,4.4l-4.4,0C13.1,65.7,13.1,61.3,13.1,61.3z
	 M10.5,48.1l4.4,0l0,4.4l-4.4,0L10.5,48.1z M10.5,41.1l0-5.2l4.3,0l0,5.2L10.5,41.1z"/>
<path class="st5" d="M15.8,12.3l0-2.6l2.6,0l0,2.6C18.4,12.3,15.8,12.3,15.8,12.3z M9.6,18.4l0-2.6l2.6,0l0,2.6L9.6,18.4z M5.2,25.4
	l0-2.6l2.6,0l0,2.6L5.2,25.4z M1.8,33.3l0-2.6l2.6,0l0,2.6C4.4,33.3,1.8,33.3,1.8,33.3z M0,41.2l0-2.6l2.6,0l0,2.6L0,41.2z M0,49.9
	l0-2.6l2.6,0l0,2.6C2.6,49.9,0,49.9,0,49.9z M1.8,57.8l0-2.6l2.6,0l0,2.6C4.4,57.8,1.8,57.8,1.8,57.8z M5.2,65.7l0-2.6l2.6,0l0,2.6
	L5.2,65.7z M9.6,72.7l0-2.6l2.6,0l0,2.6L9.6,72.7z M15.8,78.8l0-2.6l2.6,0l0,2.6C18.4,78.8,15.8,78.8,15.8,78.8z M22.8,84.1l0-2.6
	l2.6,0l0,2.6L22.8,84.1z M30.6,86.7l0-2.6l2.6,0l0,2.6L30.6,86.7z M39.4,88.4l0-2.6l2.6,0l0,2.6L39.4,88.4z M47.3,85.8h2.6v2.6h-2.6
	V85.8z M56,86.7l0-2.6l2.6,0l0,2.6L56,86.7z M63.9,81.4l2.6,0l0,2.6l-2.7,0L63.9,81.4C63.9,81.4,63.9,81.4,63.9,81.4z M70.9,78.8
	l0-2.6l2.6,0l0,2.6L70.9,78.8z M77,72.7l0-2.6l2.6,0l0,2.6L77,72.7z M81.4,65.7l0-2.6l2.6,0l0,2.6L81.4,65.7z M84.9,57.8l0-2.6
	l2.6,0l0,2.6L84.9,57.8z M85.8,49.9l0-2.6l2.6,0l0,2.6L85.8,49.9z M85.8,41.2l0-2.6l2.6,0l0,2.6L85.8,41.2z M84.9,33.3l0-2.6l2.6,0
	l0,2.6L84.9,33.3z M81.4,25.4l0-2.6l2.6,0l0,2.6L81.4,25.4z M77,18.4l0-2.6l2.6,0l0,2.6L77,18.4z M70.9,12.3l0-2.6l2.6,0l0,2.6
	L70.9,12.3z M63.9,7.9l0-2.6l2.6,0l0,2.6C66.5,7.9,63.9,7.9,63.9,7.9z M56,4.4l0-2.6l2.6,0l0,2.6L56,4.4z M47.3,2.6l0-2.6h2.6l0,2.6
	C49.9,2.7,47.3,2.6,47.3,2.6z M39.4,0L42,0l0,2.7l-2.7,0L39.4,0C39.4,0,39.4,0,39.4,0z M30.6,4.4l0-2.6l2.6,0l0,2.6
	C33.2,4.4,30.6,4.4,30.6,4.4z M22.7,5.3l2.6,0l0,2.7l-2.6,0L22.7,5.3C22.7,5.3,22.7,5.3,22.7,5.3z"/>
<g>
	<path class="st0" d="M139.3,76.7c0-4.4,3.3-7.6,7.8-7.6c2.1,0,4,0.7,5.4,2.1l-0.7,0.7c-1.3-1.3-2.9-1.8-4.6-1.8
		c-3.8,0-6.8,2.8-6.8,6.6c0,3.8,2.9,6.6,6.8,6.6c1.8,0,3.3-0.5,4.6-1.8l0.7,0.7c-1.3,1.4-3.2,2.1-5.4,2.1
		C142.7,84.3,139.3,81.1,139.3,76.7z"/>
	<path class="st0" d="M154.7,76.7c0-4.4,3.3-7.6,7.8-7.6c4.5,0,7.8,3.2,7.8,7.6c0,4.4-3.4,7.6-7.8,7.6
		C158.1,84.3,154.7,81.1,154.7,76.7z M169.3,76.7c0-3.8-2.9-6.6-6.7-6.6c-3.8,0-6.7,2.8-6.7,6.6c0,3.8,2.9,6.6,6.7,6.6
		C166.4,83.3,169.3,80.5,169.3,76.7z"/>
	<path class="st0" d="M188.4,84.2l0-12.9l-6.3,10.9h-0.5l-6.3-10.8v12.8h-1.1v-15h0.9l6.7,11.6l6.7-11.6h0.9l0,15H188.4z"/>
	<path class="st0" d="M209,84.2l0-12.9l-6.3,10.9h-0.5l-6.3-10.8v12.8h-1.1v-15h0.9l6.7,11.6l6.7-11.6h0.9l0,15H209z"/>
	<path class="st0" d="M215.1,77.8v-8.7h1.1v8.6c0,3.8,1.8,5.5,4.9,5.5s4.9-1.8,4.9-5.5v-8.6h1.1v8.7c0,4.3-2.3,6.5-6,6.5
		S215.1,82.1,215.1,77.8z"/>
	<path class="st0" d="M244.6,69.2v15h-0.9l-10.3-13.1v13.1h-1.1v-15h0.9l10.2,13.1V69.2H244.6z"/>
	<path class="st0" d="M249.8,69.2h1.1v15h-1.1V69.2z"/>
	<path class="st0" d="M259,70.2h-5.4v-1h11.9v1h-5.4v14.1H259V70.2z"/>
	<path class="st0" d="M272.9,79.1v5.2h-1.1v-5.2l-6.1-9.9h1.2l5.4,8.9l5.4-8.9h1.1L272.9,79.1z"/>
	<path class="st0" d="M297.6,83.2v1h-10.4v-15h10.1v1h-9v5.9h8v1h-8v6.2H297.6z"/>
	<path class="st0" d="M301.6,69.2h6c4.8,0,8,3.1,8,7.5c0,4.4-3.2,7.5-8,7.5h-6V69.2z M307.5,83.2c4.3,0,7-2.7,7-6.5
		c0-3.8-2.7-6.5-7-6.5h-4.8v13.1H307.5z"/>
	<path class="st0" d="M319.3,69.2h1.1v15h-1.1V69.2z"/>
	<path class="st0" d="M328.6,70.2h-5.4v-1h11.9v1h-5.4v14.1h-1.1V70.2z"/>
	<path class="st0" d="M337.8,69.2h1.1v15h-1.1V69.2z"/>
	<path class="st0" d="M342.7,76.7c0-4.4,3.3-7.6,7.8-7.6c4.5,0,7.8,3.2,7.8,7.6c0,4.4-3.4,7.6-7.8,7.6
		C346,84.3,342.7,81.1,342.7,76.7z M357.2,76.7c0-3.8-2.9-6.6-6.7-6.6c-3.8,0-6.7,2.8-6.7,6.6c0,3.8,2.9,6.6,6.7,6.6
		C354.3,83.3,357.2,80.5,357.2,76.7z"/>
	<path class="st0" d="M374.4,69.2v15h-0.9l-10.3-13.1v13.1h-1.1v-15h0.9l10.2,13.1V69.2H374.4z"/>
</g>
</svg>
